<svg id="Capa_1" data-name="Capa 1" xmlns="http://www.w3.org/2000/svg" viewBox="0 0 509.69 496"><defs><style>.cls-1{fill:#d0eff0;}.cls-2{fill:#b5e2ff;}.cls-3{fill:#9bd9f7;}.cls-4{fill:#fff;}.cls-5{fill:#f8cd51;}</style></defs><title>sin-movimientos-micro-ilustracion</title><path class="cls-1" d="M532.16,304.5c0,134.48-109,243.5-243.51,243.5S45.15,439,45.15,304.5,154.18,61,288.65,61,532.16,170,532.16,304.5" transform="translate(-45.15 -52)"/><path class="cls-2" d="M119.72,95.66a32.68,32.68,0,0,0-31.91,25.6A21.42,21.42,0,0,0,76,117.69h-.07a21.61,21.61,0,0,0-17.15,34.74l34.24.1h5.38a245,245,0,0,1,46.74-44.76A32.63,32.63,0,0,0,119.8,95.66h-.08" transform="translate(-45.15 -52)"/><path class="cls-3" d="M145.12,107.78a245,245,0,0,0-46.74,44.76l47.43.12,31,.08a18.44,18.44,0,0,0-15.41-28.51h-.07a18.48,18.48,0,0,0-9,2.33,32.51,32.51,0,0,0-7.22-18.79" transform="translate(-45.15 -52)"/><path class="cls-2" d="M500,425.5a244.7,244.7,0,0,1-60.72,70.32l64.79.17,46.29.12a27.55,27.55,0,0,0-23-42.6h-.11A27.59,27.59,0,0,0,513.85,457,48.65,48.65,0,0,0,500,425.5" transform="translate(-45.15 -52)"/><path class="cls-3" d="M465.07,410.79A48.85,48.85,0,0,0,417.38,449a32.12,32.12,0,0,0-17.67-5.32h-.09A32.3,32.3,0,0,0,374,495.65l51.17.14,14.15,0A244.7,244.7,0,0,0,500,425.5a48.73,48.73,0,0,0-34.81-14.71h-.13" transform="translate(-45.15 -52)"/><polygon class="cls-4" points="83.21 203.7 63.06 210.17 83.21 216.65 89.69 236.81 96.17 216.65 116.32 210.17 96.17 203.7 89.69 183.55 83.21 203.7"/><polygon class="cls-4" points="223.55 106.96 203.4 113.42 223.55 119.91 230.03 140.06 236.51 119.91 256.67 113.42 236.51 106.96 230.03 86.8 223.55 106.96"/><polygon class="cls-5" points="436.08 20.15 415.93 26.62 436.08 33.1 442.56 53.26 449.04 33.1 469.19 26.62 449.04 20.15 442.56 0 436.08 20.15"/><polygon class="cls-4" points="378.42 299.63 367.44 303.15 378.42 306.69 381.95 317.67 385.49 306.69 396.47 303.15 385.49 299.63 381.95 288.65 378.42 299.63"/><polygon class="cls-5" points="28.48 460.42 17.5 463.94 28.48 467.48 32.01 478.46 35.55 467.48 46.53 463.94 35.55 460.42 32.01 449.44 28.48 460.42"/><polygon class="cls-4" points="299.87 258.63 286.31 262.98 299.87 267.35 304.24 280.91 308.6 267.35 322.16 262.98 308.6 258.63 304.24 245.06 299.87 258.63"/><polygon class="cls-4" points="181.12 369.31 167.55 373.66 181.12 378.02 185.48 391.59 189.84 378.02 203.4 373.66 189.84 369.31 185.48 355.74 181.12 369.31"/></svg>